<?xml version="1.0" encoding="UTF-8"?>
<!DOCTYPE svg PUBLIC "-//W3C//DTD SVG 1.1//EN" "http://www.w3.org/Graphics/SVG/1.1/DTD/svg11.dtd">
<svg xmlns="http://www.w3.org/2000/svg" version="1.1" width="40px" height="40px" style="shape-rendering:geometricPrecision; text-rendering:geometricPrecision; image-rendering:optimizeQuality; fill-rule:evenodd; clip-rule:evenodd" xmlns:xlink="http://www.w3.org/1999/xlink">
<g><path style="opacity:1" fill="#010002" d="M -0.5,-0.5 C 12.8333,-0.5 26.1667,-0.5 39.5,-0.5C 39.5,12.8333 39.5,26.1667 39.5,39.5C 26.1667,39.5 12.8333,39.5 -0.5,39.5C -0.5,26.1667 -0.5,12.8333 -0.5,-0.5 Z"/></g>
<g><path style="opacity:1" fill="#09040b" d="M 21.5,16.5 C 22.5137,17.6737 23.847,18.3404 25.5,18.5C 24.015,21.0827 21.6817,22.416 18.5,22.5C 18.1667,22.5 17.8333,22.5 17.5,22.5C 17.1583,21.6618 16.4916,21.3284 15.5,21.5C 14.4489,20.7777 13.7822,19.7777 13.5,18.5C 15.9925,17.2264 18.6592,16.5597 21.5,16.5 Z"/></g>
<g><path style="opacity:1" fill="#cd3fc2" d="M 25.5,11.5 C 24.9202,13.7488 23.5869,15.4154 21.5,16.5C 18.6592,16.5597 15.9925,17.2264 13.5,18.5C 12.1667,19.8333 10.8333,19.8333 9.5,18.5C 7.95047,17.5592 6.2838,16.8925 4.5,16.5C 8.88489,13.2198 13.7182,10.5532 19,8.5C 21.2527,9.3773 23.4194,10.3773 25.5,11.5 Z"/></g>
<g><path style="opacity:1" fill="#ae53cc" d="M 25.5,11.5 C 28.1667,12.8333 30.8333,14.1667 33.5,15.5C 32.0351,16.7368 30.3684,17.7368 28.5,18.5C 27.5,19.8333 26.5,19.8333 25.5,18.5C 23.847,18.3404 22.5137,17.6737 21.5,16.5C 23.5869,15.4154 24.9202,13.7488 25.5,11.5 Z"/></g>
<g><path style="opacity:1" fill="#637fe1" d="M 4.5,16.5 C 6.2838,16.8925 7.95047,17.5592 9.5,18.5C 8.83333,20.5 8.16667,22.5 7.5,24.5C 4.90058,22.6143 3.90058,19.9476 4.5,16.5 Z"/></g>
<g><path style="opacity:1" fill="#5f7ddd" d="M 33.5,15.5 C 34.8003,18.0241 34.8003,20.6908 33.5,23.5C 30.5963,25.12 27.5963,26.4533 24.5,27.5C 26.5938,24.903 27.9271,21.903 28.5,18.5C 30.3684,17.7368 32.0351,16.7368 33.5,15.5 Z"/></g>
<g><path style="opacity:1" fill="#8a63cf" d="M 9.5,18.5 C 10.8333,19.8333 12.1667,19.8333 13.5,18.5C 13.7822,19.7777 14.4489,20.7777 15.5,21.5C 12.7026,21.9666 11.3692,23.6333 11.5,26.5C 10.1667,25.8333 8.83333,25.1667 7.5,24.5C 8.16667,22.5 8.83333,20.5 9.5,18.5 Z"/></g>
<g><path style="opacity:1" fill="#b44fcb" d="M 15.5,21.5 C 16.4916,21.3284 17.1583,21.6618 17.5,22.5C 15.9261,24.1016 15.2594,26.1016 15.5,28.5C 14.1667,27.8333 12.8333,27.1667 11.5,26.5C 11.3692,23.6333 12.7026,21.9666 15.5,21.5 Z"/></g>
<g><path style="opacity:1" fill="#d43bc2" d="M 17.5,22.5 C 17.8333,22.5 18.1667,22.5 18.5,22.5C 19.388,25.0545 19.7214,27.7212 19.5,30.5C 18.1667,29.8333 16.8333,29.1667 15.5,28.5C 15.2594,26.1016 15.9261,24.1016 17.5,22.5 Z"/></g>
<g><path style="opacity:1" fill="#796dd4" d="M 25.5,18.5 C 26.5,19.8333 27.5,19.8333 28.5,18.5C 27.9271,21.903 26.5938,24.903 24.5,27.5C 23.0351,28.7368 21.3684,29.7368 19.5,30.5C 19.7214,27.7212 19.388,25.0545 18.5,22.5C 21.6817,22.416 24.015,21.0827 25.5,18.5 Z"/></g>
</svg>
